<svg width="597.314" height="79.981" viewBox="0 0 597.314 79.981" xmlns="http://www.w3.org/2000/svg">
	<g id="svgGroup" stroke-linecap="round" fill-rule="evenodd" font-size="9pt" stroke="#000" stroke-width="0.25mm" fill="none" style="stroke:#000;stroke-width:0.25mm;fill:none">
		<path d="M 0 79.395 L 0 1.709 L 11.67 1.709 L 11.67 48.877 L 21.191 48.877 L 32.275 28.272 L 44.531 28.272 L 32.764 48.731 A 9.855 9.855 0 0 1 36.426 50.171 Q 38.135 51.27 39.38 52.954 A 13.444 13.444 0 0 1 41.196 56.369 A 15.226 15.226 0 0 1 41.333 56.763 A 14.046 14.046 0 0 1 42.035 60.833 A 15.922 15.922 0 0 1 42.041 61.28 L 42.041 71.045 L 53.271 71.045 A 9.828 9.828 0 0 1 52.319 74.292 A 9.799 9.799 0 0 1 50.798 76.555 A 9.079 9.079 0 0 1 50.415 76.953 A 8.967 8.967 0 0 1 47.803 78.736 A 7.413 7.413 0 0 1 44.727 79.395 L 39.697 79.395 A 7.042 7.042 0 0 1 36.108 78.418 A 9.746 9.746 0 0 1 33.52 76.217 A 11.393 11.393 0 0 1 33.154 75.757 A 12.711 12.711 0 0 1 31.607 73.045 A 15.301 15.301 0 0 1 31.152 71.826 A 15.062 15.062 0 0 1 30.45 68.03 A 17.587 17.587 0 0 1 30.42 66.992 L 30.42 57.08 L 11.67 57.08 L 11.67 79.395 L 0 79.395 Z" id="0" vector-effect="non-scaling-stroke"/>
		<path d="M 61.67 67.139 L 61.67 42.041 A 18.825 18.825 0 0 1 62.051 38.198 A 16.458 16.458 0 0 1 62.476 36.572 A 15.613 15.613 0 0 1 63.611 33.865 A 12.825 12.825 0 0 1 64.697 32.178 A 10.678 10.678 0 0 1 67.337 29.695 A 10.068 10.068 0 0 1 68.042 29.273 A 8.594 8.594 0 0 1 72.217 28.223 L 105.127 28.223 L 105.127 71.045 L 115.723 71.045 A 9.828 9.828 0 0 1 114.771 74.292 A 9.799 9.799 0 0 1 113.249 76.555 A 9.079 9.079 0 0 1 112.866 76.953 A 8.967 8.967 0 0 1 110.254 78.736 A 7.413 7.413 0 0 1 107.178 79.395 L 101.953 79.395 A 7.061 7.061 0 0 1 98.329 78.376 A 9.205 9.205 0 0 1 97.412 77.759 A 11.745 11.745 0 0 1 94.856 75.043 A 14.984 14.984 0 0 1 93.848 73.34 A 14.194 14.194 0 0 1 92.193 75.905 A 11.357 11.357 0 0 1 90.283 77.759 A 8.375 8.375 0 0 1 88.215 78.933 A 6.843 6.843 0 0 1 85.742 79.395 L 70.947 79.395 A 7.173 7.173 0 0 1 67.334 78.418 A 9.666 9.666 0 0 1 64.399 75.807 A 10.954 10.954 0 0 1 64.38 75.781 A 12.704 12.704 0 0 1 62.882 73.169 A 15.418 15.418 0 0 1 62.402 71.9 A 14.802 14.802 0 0 1 61.689 67.944 A 17.097 17.097 0 0 1 61.67 67.139 Z M 73.291 71.045 L 93.506 71.045 L 93.506 36.621 L 73.291 36.621 L 73.291 71.045 Z" id="1" vector-effect="non-scaling-stroke"/>
		<path d="M 124.219 79.395 L 124.219 1.709 L 135.889 1.709 L 135.889 48.877 L 145.41 48.877 L 156.494 28.272 L 168.75 28.272 L 156.982 48.731 A 9.855 9.855 0 0 1 160.645 50.171 Q 162.354 51.27 163.599 52.954 A 13.444 13.444 0 0 1 165.414 56.369 A 15.226 15.226 0 0 1 165.552 56.763 A 14.046 14.046 0 0 1 166.254 60.833 A 15.922 15.922 0 0 1 166.26 61.28 L 166.26 71.045 L 177.49 71.045 A 9.828 9.828 0 0 1 176.538 74.292 A 9.799 9.799 0 0 1 175.017 76.555 A 9.079 9.079 0 0 1 174.634 76.953 A 8.967 8.967 0 0 1 172.021 78.736 A 7.413 7.413 0 0 1 168.945 79.395 L 163.916 79.395 A 7.042 7.042 0 0 1 160.327 78.418 A 9.746 9.746 0 0 1 157.738 76.217 A 11.393 11.393 0 0 1 157.373 75.757 A 12.711 12.711 0 0 1 155.826 73.045 A 15.301 15.301 0 0 1 155.371 71.826 A 15.062 15.062 0 0 1 154.669 68.03 A 17.587 17.587 0 0 1 154.639 66.992 L 154.639 57.08 L 135.889 57.08 L 135.889 79.395 L 124.219 79.395 Z" id="2" vector-effect="non-scaling-stroke"/>
		<path d="M 184.424 79.395 L 184.424 70.313 L 212.256 36.621 L 185.889 36.621 L 185.889 28.272 L 224.707 28.272 L 224.707 37.256 L 197.021 71.045 L 228.516 71.045 A 9.828 9.828 0 0 1 227.563 74.292 A 9.799 9.799 0 0 1 226.042 76.555 A 9.079 9.079 0 0 1 225.659 76.953 A 8.967 8.967 0 0 1 223.047 78.736 A 7.413 7.413 0 0 1 219.971 79.395 L 184.424 79.395 Z" id="3" vector-effect="non-scaling-stroke"/>
		<path d="M 238.77 67.139 L 238.77 42.041 A 18.825 18.825 0 0 1 239.15 38.198 A 16.458 16.458 0 0 1 239.575 36.572 A 15.613 15.613 0 0 1 240.711 33.865 A 12.825 12.825 0 0 1 241.797 32.178 A 10.678 10.678 0 0 1 244.436 29.695 A 10.068 10.068 0 0 1 245.142 29.273 A 8.594 8.594 0 0 1 249.316 28.223 L 282.227 28.223 L 282.227 71.045 L 292.822 71.045 A 9.828 9.828 0 0 1 291.87 74.292 A 9.799 9.799 0 0 1 290.349 76.555 A 9.079 9.079 0 0 1 289.966 76.953 A 8.967 8.967 0 0 1 287.354 78.736 A 7.413 7.413 0 0 1 284.277 79.395 L 279.053 79.395 A 7.061 7.061 0 0 1 275.429 78.376 A 9.205 9.205 0 0 1 274.512 77.759 A 11.745 11.745 0 0 1 271.955 75.043 A 14.984 14.984 0 0 1 270.947 73.34 A 14.194 14.194 0 0 1 269.292 75.905 A 11.357 11.357 0 0 1 267.383 77.759 A 8.375 8.375 0 0 1 265.315 78.933 A 6.843 6.843 0 0 1 262.842 79.395 L 248.047 79.395 A 7.173 7.173 0 0 1 244.434 78.418 A 9.666 9.666 0 0 1 241.499 75.807 A 10.954 10.954 0 0 1 241.479 75.781 A 12.704 12.704 0 0 1 239.982 73.169 A 15.418 15.418 0 0 1 239.502 71.9 A 14.802 14.802 0 0 1 238.788 67.944 A 17.097 17.097 0 0 1 238.77 67.139 Z M 250.391 71.045 L 270.605 71.045 L 270.605 36.621 L 250.391 36.621 L 250.391 71.045 Z" id="4" vector-effect="non-scaling-stroke"/>
		<path d="M 301.318 79.395 L 301.318 1.709 L 312.988 1.709 L 312.988 48.877 L 322.51 48.877 L 333.594 28.272 L 345.85 28.272 L 334.082 48.731 A 9.855 9.855 0 0 1 337.744 50.171 Q 339.453 51.27 340.698 52.954 A 13.444 13.444 0 0 1 342.514 56.369 A 15.226 15.226 0 0 1 342.651 56.763 A 14.046 14.046 0 0 1 343.353 60.833 A 15.922 15.922 0 0 1 343.359 61.28 L 343.359 71.045 L 354.59 71.045 A 9.828 9.828 0 0 1 353.638 74.292 A 9.799 9.799 0 0 1 352.116 76.555 A 9.079 9.079 0 0 1 351.733 76.953 A 8.967 8.967 0 0 1 349.121 78.736 A 7.413 7.413 0 0 1 346.045 79.395 L 341.016 79.395 A 7.042 7.042 0 0 1 337.427 78.418 A 9.746 9.746 0 0 1 334.838 76.217 A 11.393 11.393 0 0 1 334.473 75.757 A 12.711 12.711 0 0 1 332.925 73.045 A 15.301 15.301 0 0 1 332.471 71.826 A 15.062 15.062 0 0 1 331.769 68.03 A 17.587 17.587 0 0 1 331.738 66.992 L 331.738 57.08 L 312.988 57.08 L 312.988 79.395 L 301.318 79.395 Z" id="5" vector-effect="non-scaling-stroke"/>
		<path d="M 362.402 66.992 L 362.402 28.272 L 374.072 28.272 L 374.072 71.045 L 384.521 71.045 A 9.04 9.04 0 0 1 383.618 74.292 A 9.799 9.799 0 0 1 382.097 76.555 A 9.079 9.079 0 0 1 381.714 76.953 A 8.967 8.967 0 0 1 379.102 78.736 A 7.413 7.413 0 0 1 376.025 79.395 L 371.729 79.395 A 7.173 7.173 0 0 1 368.115 78.418 A 9.708 9.708 0 0 1 365.379 76.067 A 11.23 11.23 0 0 1 365.137 75.757 A 12.711 12.711 0 0 1 363.589 73.045 A 15.301 15.301 0 0 1 363.135 71.826 A 15.062 15.062 0 0 1 362.433 68.03 A 17.587 17.587 0 0 1 362.402 66.992 Z M 368.115 16.455 Q 366.406 16.455 364.917 15.821 A 8.208 8.208 0 0 1 362.305 14.063 A 8.208 8.208 0 0 1 360.547 11.45 Q 359.912 9.961 359.912 8.252 Q 359.912 6.543 360.547 5.054 A 8.208 8.208 0 0 1 362.305 2.442 Q 363.428 1.319 364.917 0.659 A 7.812 7.812 0 0 1 368.115 0 A 7.812 7.812 0 0 1 371.313 0.659 A 8.554 8.554 0 0 1 373.926 2.442 Q 375.049 3.565 375.708 5.054 A 7.812 7.812 0 0 1 376.367 8.252 A 7.812 7.812 0 0 1 375.708 11.45 A 8.554 8.554 0 0 1 373.926 14.063 Q 372.803 15.186 371.289 15.821 A 8.125 8.125 0 0 1 368.115 16.455 Z" id="6" vector-effect="non-scaling-stroke"/>
		<path d="M 393.75 71.778 Q 393.75 70.069 394.385 68.579 A 8.208 8.208 0 0 1 396.143 65.967 Q 397.266 64.844 398.755 64.185 A 7.812 7.812 0 0 1 401.953 63.526 A 7.812 7.812 0 0 1 405.151 64.185 A 8.554 8.554 0 0 1 407.764 65.967 Q 408.887 67.09 409.546 68.579 A 7.812 7.812 0 0 1 410.205 71.778 A 7.812 7.812 0 0 1 409.546 74.976 A 8.554 8.554 0 0 1 407.764 77.588 Q 406.641 78.711 405.127 79.346 A 8.125 8.125 0 0 1 401.953 79.981 Q 400.244 79.981 398.755 79.346 A 8.208 8.208 0 0 1 396.143 77.588 A 8.208 8.208 0 0 1 394.385 74.976 Q 393.75 73.487 393.75 71.778 Z" id="7" vector-effect="non-scaling-stroke"/>
		<path d="M 429.834 66.992 L 429.834 40.674 A 16.158 16.158 0 0 1 430.196 37.204 A 14.234 14.234 0 0 1 430.566 35.84 A 14.744 14.744 0 0 1 431.649 33.311 A 12.353 12.353 0 0 1 432.544 31.909 A 9.712 9.712 0 0 1 434.87 29.642 A 9.13 9.13 0 0 1 435.498 29.248 A 7.173 7.173 0 0 1 439.111 28.272 L 461.67 28.272 L 461.67 1.758 L 473.291 1.758 L 473.291 71.045 L 482.568 71.045 A 9.828 9.828 0 0 1 481.616 74.292 A 9.799 9.799 0 0 1 480.095 76.555 A 9.079 9.079 0 0 1 479.712 76.953 A 8.967 8.967 0 0 1 477.1 78.736 A 7.413 7.413 0 0 1 474.023 79.395 L 461.67 79.395 L 461.67 74.072 A 11.839 11.839 0 0 1 460.062 76.415 A 9.825 9.825 0 0 1 458.301 77.979 A 8.053 8.053 0 0 1 455.925 79.121 A 7.165 7.165 0 0 1 453.955 79.395 L 439.111 79.395 A 7.173 7.173 0 0 1 435.498 78.418 Q 433.789 77.442 432.544 75.757 Q 431.299 74.072 430.566 71.826 A 15.062 15.062 0 0 1 429.864 68.03 A 17.587 17.587 0 0 1 429.834 66.992 Z M 441.455 71.045 L 461.67 71.045 L 461.67 36.621 L 441.455 36.621 L 441.455 71.045 Z" id="8" vector-effect="non-scaling-stroke"/>
		<path d="M 492.09 66.992 L 492.09 40.674 A 16.158 16.158 0 0 1 492.452 37.204 A 14.234 14.234 0 0 1 492.822 35.84 A 14.744 14.744 0 0 1 493.905 33.311 A 12.353 12.353 0 0 1 494.8 31.909 A 9.712 9.712 0 0 1 497.126 29.642 A 9.13 9.13 0 0 1 497.754 29.248 A 7.173 7.173 0 0 1 501.367 28.272 L 527.295 28.272 A 7.042 7.042 0 0 1 530.884 29.248 A 9.746 9.746 0 0 1 533.473 31.45 A 11.393 11.393 0 0 1 533.838 31.909 A 12.711 12.711 0 0 1 535.385 34.621 A 15.301 15.301 0 0 1 535.84 35.84 A 15.062 15.062 0 0 1 536.542 39.637 A 17.587 17.587 0 0 1 536.572 40.674 L 536.572 56.934 L 503.76 56.934 L 503.76 71.045 L 539.6 71.045 A 9.828 9.828 0 0 1 538.647 74.292 A 9.799 9.799 0 0 1 537.126 76.555 A 9.079 9.079 0 0 1 536.743 76.953 A 8.967 8.967 0 0 1 534.131 78.736 A 7.413 7.413 0 0 1 531.055 79.395 L 501.367 79.395 A 7.173 7.173 0 0 1 497.754 78.418 Q 496.045 77.442 494.8 75.757 Q 493.555 74.072 492.822 71.826 A 15.062 15.062 0 0 1 492.12 68.03 A 17.587 17.587 0 0 1 492.09 66.992 Z M 503.76 50.098 L 524.902 50.098 L 524.902 36.621 L 503.76 36.621 L 503.76 50.098 Z" id="9" vector-effect="non-scaling-stroke"/>
		<path d="M 564.648 79.395 L 546.973 28.272 L 558.838 28.272 L 572.168 71.192 L 585.498 28.272 L 597.314 28.272 L 579.59 79.395 L 564.648 79.395 Z" id="10" vector-effect="non-scaling-stroke"/>
	</g>
</svg>